<?xml version="1.0" encoding="UTF-8" standalone="no"?>
<!DOCTYPE svg PUBLIC "-//W3C//DTD SVG 1.1//EN"
 "http://www.w3.org/Graphics/SVG/1.1/DTD/svg11.dtd">
<!-- Generated by graphviz version 2.38.0 (20140413.2041)
 -->
<!-- Title: G Pages: 1 -->
<svg width="1320pt" height="598pt"
 viewBox="0.00 0.00 1320.00 598.00" xmlns="http://www.w3.org/2000/svg" xmlns:xlink="http://www.w3.org/1999/xlink">
<g id="graph0" class="graph" transform="scale(1 1) rotate(0) translate(4 594)">
<title>G</title>
<polygon fill="white" stroke="none" points="-4,4 -4,-594 1316,-594 1316,4 -4,4"/>
<!-- 9 -->
<g id="node1" class="node"><title>9</title>
<g id="a_node1"><a xlink:href="9" xlink:title="9">
<polygon fill="white" stroke="black" points="1029,-560.544 1029,-575.456 1013.18,-586 990.816,-586 975,-575.456 975,-560.544 990.816,-550 1013.18,-550 1029,-560.544"/>
<polygon fill="none" stroke="black" points="1033,-558.403 1033,-577.597 1014.39,-590 989.605,-590 971,-577.597 971,-558.403 989.605,-546 1014.39,-546 1033,-558.403"/>
<text text-anchor="middle" x="1002" y="-564.3" font-family="Times,serif" font-size="14.00">9</text>
</a>
</g>
</g>
<!-- 9&#45;&gt;9 -->
<g id="edge3" class="edge"><title>9&#45;&gt;9</title>
<g id="a_edge3"><a xlink:href="t47" xlink:title="PRESS_BUTTON_A / ERROR">
<path fill="none" stroke="black" d="M1033.1,-571.937C1043.09,-571.896 1051,-570.584 1051,-568 1051,-566.385 1047.91,-565.267 1043.15,-564.645"/>
<polygon fill="black" stroke="black" points="1043.29,-561.147 1033.1,-564.063 1042.88,-568.136 1043.29,-561.147"/>
</a>
</g>
<g id="a_edge3&#45;label"><a xlink:href="t47" xlink:title="PRESS_BUTTON_A / ERROR">
<text text-anchor="middle" x="1083" y="-567" font-family="Times,serif" font-size="5.00">PRESS_BUTTON_A / ERROR</text>
</a>
</g>
</g>
<!-- 9&#45;&gt;9 -->
<g id="edge4" class="edge"><title>9&#45;&gt;9</title>
<g id="a_edge4"><a xlink:href="t48" xlink:title="PRESS_BUTTON_B / ERROR">
<path fill="none" stroke="black" d="M1033.24,-574.341C1067.91,-577.681 1115,-575.567 1115,-568 1115,-561.142 1076.32,-558.763 1043.27,-560.864"/>
<polygon fill="black" stroke="black" points="1042.93,-557.379 1033.24,-561.659 1043.49,-564.357 1042.93,-557.379"/>
</a>
</g>
<g id="a_edge4&#45;label"><a xlink:href="t48" xlink:title="PRESS_BUTTON_B / ERROR">
<text text-anchor="middle" x="1147" y="-567" font-family="Times,serif" font-size="5.00">PRESS_BUTTON_B / ERROR</text>
</a>
</g>
</g>
<!-- 0 -->
<g id="node2" class="node"><title>0</title>
<g id="a_node2"><a xlink:href="0" xlink:title="0">
<ellipse fill="white" stroke="black" cx="870" cy="-486" rx="27" ry="18"/>
<text text-anchor="middle" x="870" y="-482.3" font-family="Times,serif" font-size="14.00">0</text>
</a>
</g>
</g>
<!-- 9&#45;&gt;0 -->
<g id="edge5" class="edge"><title>9&#45;&gt;0</title>
<g id="a_edge5"><a xlink:href="t49" xlink:title="PRESS_BUTTON_C / COFFEE MACHINE IS ON">
<path fill="none" stroke="black" d="M995.761,-545.884C992.322,-537.438 987.241,-528.25 980,-522 959.516,-504.32 930.041,-495.553 906.756,-491.216"/>
<polygon fill="black" stroke="black" points="907.315,-487.761 896.875,-489.567 906.162,-494.666 907.315,-487.761"/>
</a>
</g>
<g id="a_edge5&#45;label"><a xlink:href="t49" xlink:title="PRESS_BUTTON_C / COFFEE MACHINE IS ON">
<text text-anchor="middle" x="1038" y="-524" font-family="Times,serif" font-size="5.00">PRESS_BUTTON_C / COFFEE MACHINE IS ON</text>
</a>
</g>
</g>
<!-- 2 -->
<g id="node10" class="node"><title>2</title>
<g id="a_node10"><a xlink:href="2" xlink:title="2">
<ellipse fill="white" stroke="black" cx="183" cy="-96" rx="27" ry="18"/>
<text text-anchor="middle" x="183" y="-92.3" font-family="Times,serif" font-size="14.00">2</text>
</a>
</g>
</g>
<!-- 9&#45;&gt;2 -->
<g id="edge2" class="edge"><title>9&#45;&gt;2</title>
<g id="a_edge2"><a xlink:href="t46" xlink:title="REFILL_COFFEE / DONE">
<path fill="none" stroke="black" d="M1033.24,-565.271C1080.31,-560.793 1164,-544.716 1164,-487 1164,-487 1164,-487 1164,-290 1164,-163.405 1049.76,-162.928 927,-132 791.164,-97.7772 352.349,-96.4123 220.687,-96.801"/>
<polygon fill="black" stroke="black" points="220.312,-93.3022 210.325,-96.8373 220.337,-100.302 220.312,-93.3022"/>
</a>
</g>
<g id="a_edge2&#45;label"><a xlink:href="t46" xlink:title="REFILL_COFFEE / DONE">
<text text-anchor="middle" x="1192.5" y="-329" font-family="Times,serif" font-size="5.00">REFILL_COFFEE / DONE</text>
</a>
</g>
</g>
<!-- 6 -->
<g id="node11" class="node"><title>6</title>
<g id="a_node11"><a xlink:href="6" xlink:title="6">
<ellipse fill="white" stroke="black" cx="980" cy="-96" rx="27" ry="18"/>
<text text-anchor="middle" x="980" y="-92.3" font-family="Times,serif" font-size="14.00">6</text>
</a>
</g>
</g>
<!-- 9&#45;&gt;6 -->
<g id="edge1" class="edge"><title>9&#45;&gt;6</title>
<g id="a_edge1"><a xlink:href="t45" xlink:title="REFILL_WATER / DONE">
<path fill="none" stroke="black" d="M1033.01,-563.88C1100.97,-556.184 1257,-533.456 1257,-487 1257,-487 1257,-487 1257,-173 1257,-123.765 1092.2,-105.267 1016.83,-99.3811"/>
<polygon fill="black" stroke="black" points="1017.04,-95.8877 1006.81,-98.6324 1016.52,-102.868 1017.04,-95.8877"/>
</a>
</g>
<g id="a_edge1&#45;label"><a xlink:href="t45" xlink:title="REFILL_WATER / DONE">
<text text-anchor="middle" x="1284.5" y="-329" font-family="Times,serif" font-size="5.00">REFILL_WATER / DONE</text>
</a>
</g>
</g>
<!-- 0&#45;&gt;9 -->
<g id="edge10" class="edge"><title>0&#45;&gt;9</title>
<g id="a_edge10"><a xlink:href="t4" xlink:title="PRESS_BUTTON_C / COFFEE MACHINE IS OFF">
<path fill="none" stroke="black" d="M864.001,-503.624C862.19,-511.718 861.853,-521.155 867,-528 878.343,-543.084 925.29,-554.181 960.66,-560.601"/>
<polygon fill="black" stroke="black" points="960.297,-564.09 970.75,-562.364 961.502,-557.195 960.297,-564.09"/>
</a>
</g>
<g id="a_edge10&#45;label"><a xlink:href="t4" xlink:title="PRESS_BUTTON_C / COFFEE MACHINE IS OFF">
<text text-anchor="middle" x="921.5" y="-524" font-family="Times,serif" font-size="5.00">PRESS_BUTTON_C / COFFEE MACHINE IS OFF</text>
</a>
</g>
</g>
<!-- 0&#45;&gt;0 -->
<g id="edge8" class="edge"><title>0&#45;&gt;0</title>
<g id="a_edge8"><a xlink:href="t2" xlink:title="PRESS_BUTTON_A / ERROR">
<path fill="none" stroke="black" d="M896.795,-489.555C906.78,-489.671 915,-488.486 915,-486 915,-484.446 911.789,-483.4 906.943,-482.863"/>
<polygon fill="black" stroke="black" points="906.93,-479.36 896.795,-482.445 906.642,-486.354 906.93,-479.36"/>
</a>
</g>
<g id="a_edge8&#45;label"><a xlink:href="t2" xlink:title="PRESS_BUTTON_A / ERROR">
<text text-anchor="middle" x="947" y="-485" font-family="Times,serif" font-size="5.00">PRESS_BUTTON_A / ERROR</text>
</a>
</g>
</g>
<!-- 0&#45;&gt;0 -->
<g id="edge9" class="edge"><title>0&#45;&gt;0</title>
<g id="a_edge9"><a xlink:href="t3" xlink:title="PRESS_BUTTON_B / ERROR">
<path fill="none" stroke="black" d="M895.891,-491.344C929.5,-494.906 979,-493.125 979,-486 979,-479.571 938.696,-477.493 906.131,-479.765"/>
<polygon fill="black" stroke="black" points="905.55,-476.303 895.891,-480.656 906.156,-483.276 905.55,-476.303"/>
</a>
</g>
<g id="a_edge9&#45;label"><a xlink:href="t3" xlink:title="PRESS_BUTTON_B / ERROR">
<text text-anchor="middle" x="1011" y="-485" font-family="Times,serif" font-size="5.00">PRESS_BUTTON_B / ERROR</text>
</a>
</g>
</g>
<!-- 4 -->
<g id="node3" class="node"><title>4</title>
<g id="a_node3"><a xlink:href="4" xlink:title="4">
<ellipse fill="white" stroke="black" cx="101" cy="-18" rx="27" ry="18"/>
<text text-anchor="middle" x="101" y="-14.3" font-family="Times,serif" font-size="14.00">4</text>
</a>
</g>
</g>
<!-- 0&#45;&gt;4 -->
<g id="edge7" class="edge"><title>0&#45;&gt;4</title>
<g id="a_edge7"><a xlink:href="t1" xlink:title="REFILL_COFFEE / DONE">
<path fill="none" stroke="black" d="M843.488,-482.023C697.683,-465.304 0,-380.67 0,-292 0,-292 0,-292 0,-95 0,-60.6946 37.6631,-39.9463 66.9908,-28.9902"/>
<polygon fill="black" stroke="black" points="68.2681,-32.2514 76.5507,-25.6446 65.9559,-25.6443 68.2681,-32.2514"/>
</a>
</g>
<g id="a_edge7&#45;label"><a xlink:href="t1" xlink:title="REFILL_COFFEE / DONE">
<text text-anchor="middle" x="28.5" y="-251" font-family="Times,serif" font-size="5.00">REFILL_COFFEE / DONE</text>
</a>
</g>
</g>
<!-- 3 -->
<g id="node9" class="node"><title>3</title>
<g id="a_node9"><a xlink:href="3" xlink:title="3">
<ellipse fill="white" stroke="black" cx="870" cy="-408" rx="27" ry="18"/>
<text text-anchor="middle" x="870" y="-404.3" font-family="Times,serif" font-size="14.00">3</text>
</a>
</g>
</g>
<!-- 0&#45;&gt;3 -->
<g id="edge6" class="edge"><title>0&#45;&gt;3</title>
<g id="a_edge6"><a xlink:href="t0" xlink:title="REFILL_WATER / DONE">
<path fill="none" stroke="black" d="M870,-467.754C870,-458.523 870,-446.935 870,-436.495"/>
<polygon fill="black" stroke="black" points="873.5,-436.177 870,-426.177 866.5,-436.177 873.5,-436.177"/>
</a>
</g>
<g id="a_edge6&#45;label"><a xlink:href="t0" xlink:title="REFILL_WATER / DONE">
<text text-anchor="middle" x="897.5" y="-446" font-family="Times,serif" font-size="5.00">REFILL_WATER / DONE</text>
</a>
</g>
</g>
<!-- 4&#45;&gt;4 -->
<g id="edge12" class="edge"><title>4&#45;&gt;4</title>
<g id="a_edge12"><a xlink:href="t21" xlink:title="REFILL_COFFEE / ERROR">
<path fill="none" stroke="black" d="M127.795,-20.3698C137.78,-20.4475 146,-19.6576 146,-18 146,-16.964 142.789,-16.267 137.943,-15.9088"/>
<polygon fill="black" stroke="black" points="137.887,-12.4061 127.795,-15.6302 137.695,-19.4034 137.887,-12.4061"/>
</a>
</g>
<g id="a_edge12&#45;label"><a xlink:href="t21" xlink:title="REFILL_COFFEE / ERROR">
<text text-anchor="middle" x="175" y="-17" font-family="Times,serif" font-size="5.00">REFILL_COFFEE / ERROR</text>
</a>
</g>
</g>
<!-- 4&#45;&gt;4 -->
<g id="edge13" class="edge"><title>4&#45;&gt;4</title>
<g id="a_edge13"><a xlink:href="t22" xlink:title="PRESS_BUTTON_A / ERROR">
<path fill="none" stroke="black" d="M127.46,-21.6712C159.305,-23.8995 204,-22.6758 204,-18 204,-13.7991 167.923,-12.3847 137.5,-13.7567"/>
<polygon fill="black" stroke="black" points="137.244,-10.2655 127.46,-14.3288 137.643,-17.2541 137.244,-10.2655"/>
</a>
</g>
<g id="a_edge13&#45;label"><a xlink:href="t22" xlink:title="PRESS_BUTTON_A / ERROR">
<text text-anchor="middle" x="236" y="-17" font-family="Times,serif" font-size="5.00">PRESS_BUTTON_A / ERROR</text>
</a>
</g>
</g>
<!-- 4&#45;&gt;4 -->
<g id="edge14" class="edge"><title>4&#45;&gt;4</title>
<g id="a_edge14"><a xlink:href="t23" xlink:title="PRESS_BUTTON_B / ERROR">
<path fill="none" stroke="black" d="M127.508,-22.4452C176.906,-27.1448 268,-25.6631 268,-18 268,-10.8308 188.27,-9.07187 137.543,-12.7231"/>
<polygon fill="black" stroke="black" points="137.184,-9.24079 127.508,-13.5548 137.763,-16.2169 137.184,-9.24079"/>
</a>
</g>
<g id="a_edge14&#45;label"><a xlink:href="t23" xlink:title="PRESS_BUTTON_B / ERROR">
<text text-anchor="middle" x="300" y="-17" font-family="Times,serif" font-size="5.00">PRESS_BUTTON_B / ERROR</text>
</a>
</g>
</g>
<!-- 10 -->
<g id="node4" class="node"><title>10</title>
<g id="a_node4"><a xlink:href="10" xlink:title="10">
<ellipse fill="white" stroke="black" cx="433" cy="-330" rx="27" ry="18"/>
<text text-anchor="middle" x="433" y="-326.3" font-family="Times,serif" font-size="14.00">10</text>
</a>
</g>
</g>
<!-- 4&#45;&gt;10 -->
<g id="edge11" class="edge"><title>4&#45;&gt;10</title>
<g id="a_edge11"><a xlink:href="t20" xlink:title="REFILL_WATER / DONE">
<path fill="none" stroke="black" d="M95.404,-35.6917C90.79,-50.9503 85,-74.2351 85,-95 85,-253 85,-253 85,-253 85,-316.129 306.344,-326.904 395.977,-328.679"/>
<polygon fill="black" stroke="black" points="395.924,-332.178 405.983,-328.85 396.044,-325.179 395.924,-332.178"/>
</a>
</g>
<g id="a_edge11&#45;label"><a xlink:href="t20" xlink:title="REFILL_WATER / DONE">
<text text-anchor="middle" x="112.5" y="-173" font-family="Times,serif" font-size="5.00">REFILL_WATER / DONE</text>
</a>
</g>
</g>
<!-- 4&#45;&gt;2 -->
<g id="edge15" class="edge"><title>4&#45;&gt;2</title>
<g id="a_edge15"><a xlink:href="t24" xlink:title="PRESS_BUTTON_C / COFFEE MACHINE IS OFF">
<path fill="none" stroke="black" d="M127.12,-22.6515C159.886,-27.8289 213.222,-38.4376 225,-54 232.105,-63.3885 224.24,-72.6545 213.471,-79.9959"/>
<polygon fill="black" stroke="black" points="211.611,-77.0309 204.87,-85.205 215.237,-83.0185 211.611,-77.0309"/>
</a>
</g>
<g id="a_edge15&#45;label"><a xlink:href="t24" xlink:title="PRESS_BUTTON_C / COFFEE MACHINE IS OFF">
<text text-anchor="middle" x="282.5" y="-56" font-family="Times,serif" font-size="5.00">PRESS_BUTTON_C / COFFEE MACHINE IS OFF</text>
</a>
</g>
</g>
<!-- 10&#45;&gt;10 -->
<g id="edge16" class="edge"><title>10&#45;&gt;10</title>
<g id="a_edge16"><a xlink:href="t50" xlink:title="REFILL_WATER / ERROR">
<path fill="none" stroke="black" d="M459.795,-333.555C469.78,-333.671 478,-332.486 478,-330 478,-328.446 474.789,-327.4 469.943,-326.863"/>
<polygon fill="black" stroke="black" points="469.93,-323.36 459.795,-326.445 469.642,-330.354 469.93,-323.36"/>
</a>
</g>
<g id="a_edge16&#45;label"><a xlink:href="t50" xlink:title="REFILL_WATER / ERROR">
<text text-anchor="middle" x="506.5" y="-329" font-family="Times,serif" font-size="5.00">REFILL_WATER / ERROR</text>
</a>
</g>
</g>
<!-- 10&#45;&gt;10 -->
<g id="edge17" class="edge"><title>10&#45;&gt;10</title>
<g id="a_edge17"><a xlink:href="t51" xlink:title="REFILL_COFFEE / ERROR">
<path fill="none" stroke="black" d="M458.79,-335.453C490.382,-338.869 535,-337.051 535,-330 535,-323.665 498.985,-321.555 468.758,-323.668"/>
<polygon fill="black" stroke="black" points="468.444,-320.182 458.79,-324.547 469.059,-327.155 468.444,-320.182"/>
</a>
</g>
<g id="a_edge17&#45;label"><a xlink:href="t51" xlink:title="REFILL_COFFEE / ERROR">
<text text-anchor="middle" x="564" y="-329" font-family="Times,serif" font-size="5.00">REFILL_COFFEE / ERROR</text>
</a>
</g>
</g>
<!-- 1 -->
<g id="node5" class="node"><title>1</title>
<g id="a_node5"><a xlink:href="1" xlink:title="1">
<ellipse fill="white" stroke="black" cx="662" cy="-18" rx="27" ry="18"/>
<text text-anchor="middle" x="662" y="-14.3" font-family="Times,serif" font-size="14.00">1</text>
</a>
</g>
</g>
<!-- 10&#45;&gt;1 -->
<g id="edge20" class="edge"><title>10&#45;&gt;1</title>
<g id="a_edge20"><a xlink:href="t54" xlink:title="PRESS_BUTTON_C / COFFEE MACHINE IS OFF">
<path fill="none" stroke="black" d="M451.504,-316.679C459.547,-310.602 468.578,-302.709 475,-294 481.858,-284.7 482.734,-281.331 485,-270 491.808,-235.962 482.647,-226.673 481,-192 480.241,-176.018 473.876,-170.327 481,-156 512.158,-93.3386 587.176,-51.6908 630.217,-32.0533"/>
<polygon fill="black" stroke="black" points="631.682,-35.2325 639.401,-27.9758 628.841,-28.8347 631.682,-35.2325"/>
</a>
</g>
<g id="a_edge20&#45;label"><a xlink:href="t54" xlink:title="PRESS_BUTTON_C / COFFEE MACHINE IS OFF">
<text text-anchor="middle" x="535.5" y="-173" font-family="Times,serif" font-size="5.00">PRESS_BUTTON_C / COFFEE MACHINE IS OFF</text>
</a>
</g>
</g>
<!-- 5 -->
<g id="node6" class="node"><title>5</title>
<g id="a_node6"><a xlink:href="5" xlink:title="5">
<ellipse fill="white" stroke="black" cx="231" cy="-252" rx="27" ry="18"/>
<text text-anchor="middle" x="231" y="-248.3" font-family="Times,serif" font-size="14.00">5</text>
</a>
</g>
</g>
<!-- 10&#45;&gt;5 -->
<g id="edge18" class="edge"><title>10&#45;&gt;5</title>
<g id="a_edge18"><a xlink:href="t52" xlink:title="PRESS_BUTTON_A / NORMAL COFFEE IS SERVED">
<path fill="none" stroke="black" d="M411.469,-318.74C392.789,-310.025 364.908,-297.46 340,-288 315.298,-278.619 286.856,-269.542 265.221,-262.983"/>
<polygon fill="black" stroke="black" points="266.079,-259.587 255.495,-260.066 264.068,-266.292 266.079,-259.587"/>
</a>
</g>
<g id="a_edge18&#45;label"><a xlink:href="t52" xlink:title="PRESS_BUTTON_A / NORMAL COFFEE IS SERVED">
<text text-anchor="middle" x="412" y="-290" font-family="Times,serif" font-size="5.00">PRESS_BUTTON_A / NORMAL COFFEE IS SERVED</text>
</a>
</g>
</g>
<!-- 10&#45;&gt;5 -->
<g id="edge19" class="edge"><title>10&#45;&gt;5</title>
<g id="a_edge19"><a xlink:href="t53" xlink:title="PRESS_BUTTON_B / EXPRESSO IS SERVED">
<path fill="none" stroke="black" d="M406.14,-328.053C357.76,-325.755 258.87,-318.151 236,-294 232.487,-290.29 230.542,-285.469 229.565,-280.444"/>
<polygon fill="black" stroke="black" points="233.025,-279.812 228.725,-270.129 226.048,-280.38 233.025,-279.812"/>
</a>
</g>
<g id="a_edge19&#45;label"><a xlink:href="t53" xlink:title="PRESS_BUTTON_B / EXPRESSO IS SERVED">
<text text-anchor="middle" x="286" y="-290" font-family="Times,serif" font-size="5.00">PRESS_BUTTON_B / EXPRESSO IS SERVED</text>
</a>
</g>
</g>
<!-- 1&#45;&gt;10 -->
<g id="edge25" class="edge"><title>1&#45;&gt;10</title>
<g id="a_edge25"><a xlink:href="t9" xlink:title="PRESS_BUTTON_C / COFFEE MACHINE IS ON">
<path fill="none" stroke="black" d="M685.881,-26.5832C724.82,-40.3978 800.773,-73.7477 832,-132 844.891,-156.048 837.257,-171.722 819,-192 770.422,-245.956 553.748,-301.002 468.05,-321.07"/>
<polygon fill="black" stroke="black" points="467.218,-317.67 458.269,-323.341 468.801,-324.488 467.218,-317.67"/>
</a>
</g>
<g id="a_edge25&#45;label"><a xlink:href="t9" xlink:title="PRESS_BUTTON_C / COFFEE MACHINE IS ON">
<text text-anchor="middle" x="892" y="-173" font-family="Times,serif" font-size="5.00">PRESS_BUTTON_C / COFFEE MACHINE IS ON</text>
</a>
</g>
</g>
<!-- 1&#45;&gt;1 -->
<g id="edge21" class="edge"><title>1&#45;&gt;1</title>
<g id="a_edge21"><a xlink:href="t5" xlink:title="REFILL_WATER / ERROR">
<path fill="none" stroke="black" d="M689.241,-19.7795C699.024,-19.8178 707,-19.2246 707,-18 707,-17.2538 704.038,-16.742 699.51,-16.4647"/>
<polygon fill="black" stroke="black" points="699.321,-12.9593 689.241,-16.2205 699.155,-19.9573 699.321,-12.9593"/>
</a>
</g>
<g id="a_edge21&#45;label"><a xlink:href="t5" xlink:title="REFILL_WATER / ERROR">
<text text-anchor="middle" x="735.5" y="-17" font-family="Times,serif" font-size="5.00">REFILL_WATER / ERROR</text>
</a>
</g>
</g>
<!-- 1&#45;&gt;1 -->
<g id="edge22" class="edge"><title>1&#45;&gt;1</title>
<g id="a_edge22"><a xlink:href="t6" xlink:title="REFILL_COFFEE / ERROR">
<path fill="none" stroke="black" d="M688.792,-20.7797C720.316,-22.4149 764,-21.4883 764,-18 764,-14.8796 729.045,-13.8091 699.107,-14.7884"/>
<polygon fill="black" stroke="black" points="698.637,-11.3049 688.792,-15.2203 698.93,-18.2988 698.637,-11.3049"/>
</a>
</g>
<g id="a_edge22&#45;label"><a xlink:href="t6" xlink:title="REFILL_COFFEE / ERROR">
<text text-anchor="middle" x="793" y="-17" font-family="Times,serif" font-size="5.00">REFILL_COFFEE / ERROR</text>
</a>
</g>
</g>
<!-- 1&#45;&gt;1 -->
<g id="edge23" class="edge"><title>1&#45;&gt;1</title>
<g id="a_edge23"><a xlink:href="t7" xlink:title="PRESS_BUTTON_A / ERROR">
<path fill="none" stroke="black" d="M688.518,-21.3848C736.297,-24.8477 822,-23.7195 822,-18 822,-12.6603 747.302,-11.3224 698.502,-13.9861"/>
<polygon fill="black" stroke="black" points="698.278,-10.4931 688.518,-14.6152 698.719,-17.4793 698.278,-10.4931"/>
</a>
</g>
<g id="a_edge23&#45;label"><a xlink:href="t7" xlink:title="PRESS_BUTTON_A / ERROR">
<text text-anchor="middle" x="854" y="-17" font-family="Times,serif" font-size="5.00">PRESS_BUTTON_A / ERROR</text>
</a>
</g>
</g>
<!-- 1&#45;&gt;1 -->
<g id="edge24" class="edge"><title>1&#45;&gt;1</title>
<g id="a_edge24"><a xlink:href="t8" xlink:title="PRESS_BUTTON_B / ERROR">
<path fill="none" stroke="black" d="M688.58,-21.8334C751.281,-27.2563 886,-25.9785 886,-18 886,-10.4266 764.616,-8.89073 698.662,-13.3923"/>
<polygon fill="black" stroke="black" points="698.282,-9.91101 688.58,-14.1666 698.819,-16.8905 698.282,-9.91101"/>
</a>
</g>
<g id="a_edge24&#45;label"><a xlink:href="t8" xlink:title="PRESS_BUTTON_B / ERROR">
<text text-anchor="middle" x="918" y="-17" font-family="Times,serif" font-size="5.00">PRESS_BUTTON_B / ERROR</text>
</a>
</g>
</g>
<!-- 5&#45;&gt;9 -->
<g id="edge30" class="edge"><title>5&#45;&gt;9</title>
<g id="a_edge30"><a xlink:href="t29" xlink:title="PRESS_BUTTON_C / COFFEE MACHINE IS OFF">
<path fill="none" stroke="black" d="M210.894,-264.218C206.995,-266.24 202.906,-268.256 199,-270 129.408,-301.061 38,-252.791 38,-329 38,-487 38,-487 38,-487 38,-534.028 776.234,-560.012 960.643,-565.769"/>
<polygon fill="black" stroke="black" points="960.643,-569.27 970.746,-566.081 960.859,-562.274 960.643,-569.27"/>
</a>
</g>
<g id="a_edge30&#45;label"><a xlink:href="t29" xlink:title="PRESS_BUTTON_C / COFFEE MACHINE IS OFF">
<text text-anchor="middle" x="92.5" y="-407" font-family="Times,serif" font-size="5.00">PRESS_BUTTON_C / COFFEE MACHINE IS OFF</text>
</a>
</g>
</g>
<!-- 5&#45;&gt;5 -->
<g id="edge28" class="edge"><title>5&#45;&gt;5</title>
<g id="a_edge28"><a xlink:href="t27" xlink:title="PRESS_BUTTON_A / NORMAL COFFEE IS SERVED">
<path fill="none" stroke="black" d="M257.795,-255.555C267.78,-255.671 276,-254.486 276,-252 276,-250.446 272.789,-249.4 267.943,-248.863"/>
<polygon fill="black" stroke="black" points="267.93,-245.36 257.795,-248.445 267.642,-252.354 267.93,-245.36"/>
</a>
</g>
<g id="a_edge28&#45;label"><a xlink:href="t27" xlink:title="PRESS_BUTTON_A / NORMAL COFFEE IS SERVED">
<text text-anchor="middle" x="335" y="-251" font-family="Times,serif" font-size="5.00">PRESS_BUTTON_A / NORMAL COFFEE IS SERVED</text>
</a>
</g>
</g>
<!-- 5&#45;&gt;5 -->
<g id="edge29" class="edge"><title>5&#45;&gt;5</title>
<g id="a_edge29"><a xlink:href="t28" xlink:title="PRESS_BUTTON_B / ERROR">
<path fill="none" stroke="black" d="M257.268,-256.679C304.71,-261.093 394,-259.533 394,-252 394,-244.982 316.501,-243.148 267.542,-246.5"/>
<polygon fill="black" stroke="black" points="266.957,-243.035 257.268,-247.321 267.515,-250.013 266.957,-243.035"/>
</a>
</g>
<g id="a_edge29&#45;label"><a xlink:href="t28" xlink:title="PRESS_BUTTON_B / ERROR">
<text text-anchor="middle" x="426" y="-251" font-family="Times,serif" font-size="5.00">PRESS_BUTTON_B / ERROR</text>
</a>
</g>
</g>
<!-- 8 -->
<g id="node7" class="node"><title>8</title>
<g id="a_node7"><a xlink:href="8" xlink:title="8">
<ellipse fill="white" stroke="black" cx="185" cy="-174" rx="27" ry="18"/>
<text text-anchor="middle" x="185" y="-170.3" font-family="Times,serif" font-size="14.00">8</text>
</a>
</g>
</g>
<!-- 5&#45;&gt;8 -->
<g id="edge27" class="edge"><title>5&#45;&gt;8</title>
<g id="a_edge27"><a xlink:href="t26" xlink:title="REFILL_COFFEE / DONE">
<path fill="none" stroke="black" d="M208.313,-241.959C191.234,-234.637 169.948,-224.224 165,-216 161.624,-210.389 162.516,-204.125 165.27,-198.215"/>
<polygon fill="black" stroke="black" points="168.467,-199.703 170.786,-189.365 162.526,-196 168.467,-199.703"/>
</a>
</g>
<g id="a_edge27&#45;label"><a xlink:href="t26" xlink:title="REFILL_COFFEE / DONE">
<text text-anchor="middle" x="193.5" y="-212" font-family="Times,serif" font-size="5.00">REFILL_COFFEE / DONE</text>
</a>
</g>
</g>
<!-- 7 -->
<g id="node8" class="node"><title>7</title>
<g id="a_node8"><a xlink:href="7" xlink:title="7">
<ellipse fill="white" stroke="black" cx="626" cy="-174" rx="27" ry="18"/>
<text text-anchor="middle" x="626" y="-170.3" font-family="Times,serif" font-size="14.00">7</text>
</a>
</g>
</g>
<!-- 5&#45;&gt;7 -->
<g id="edge26" class="edge"><title>5&#45;&gt;7</title>
<g id="a_edge26"><a xlink:href="t25" xlink:title="REFILL_WATER / DONE">
<path fill="none" stroke="black" d="M258.193,-250.823C347.15,-249.967 625.335,-244.973 652,-216 657.497,-210.027 655.178,-202.745 650.146,-195.984"/>
<polygon fill="black" stroke="black" points="652.596,-193.476 643.298,-188.397 647.4,-198.166 652.596,-193.476"/>
</a>
</g>
<g id="a_edge26&#45;label"><a xlink:href="t25" xlink:title="REFILL_WATER / DONE">
<text text-anchor="middle" x="682.5" y="-212" font-family="Times,serif" font-size="5.00">REFILL_WATER / DONE</text>
</a>
</g>
</g>
<!-- 8&#45;&gt;10 -->
<g id="edge31" class="edge"><title>8&#45;&gt;10</title>
<g id="a_edge31"><a xlink:href="t40" xlink:title="REFILL_WATER / DONE">
<path fill="none" stroke="black" d="M169.511,-188.902C149.718,-208.357 120.245,-244.212 140,-270 170.69,-310.062 323.9,-323.306 395.725,-327.358"/>
<polygon fill="black" stroke="black" points="395.943,-330.874 406.115,-327.911 396.315,-323.884 395.943,-330.874"/>
</a>
</g>
<g id="a_edge31&#45;label"><a xlink:href="t40" xlink:title="REFILL_WATER / DONE">
<text text-anchor="middle" x="167.5" y="-251" font-family="Times,serif" font-size="5.00">REFILL_WATER / DONE</text>
</a>
</g>
</g>
<!-- 8&#45;&gt;5 -->
<g id="edge33" class="edge"><title>8&#45;&gt;5</title>
<g id="a_edge33"><a xlink:href="t42" xlink:title="PRESS_BUTTON_A / NORMAL COFFEE IS SERVED">
<path fill="none" stroke="black" d="M202.705,-187.906C209.708,-193.881 217.213,-201.533 222,-210 224.364,-214.181 226.107,-218.926 227.393,-223.669"/>
<polygon fill="black" stroke="black" points="224.047,-224.765 229.539,-233.825 230.896,-223.318 224.047,-224.765"/>
</a>
</g>
<g id="a_edge33&#45;label"><a xlink:href="t42" xlink:title="PRESS_BUTTON_A / NORMAL COFFEE IS SERVED">
<text text-anchor="middle" x="284" y="-212" font-family="Times,serif" font-size="5.00">PRESS_BUTTON_A / NORMAL COFFEE IS SERVED</text>
</a>
</g>
</g>
<!-- 8&#45;&gt;5 -->
<g id="edge34" class="edge"><title>8&#45;&gt;5</title>
<g id="a_edge34"><a xlink:href="t43" xlink:title="PRESS_BUTTON_B / EXPRESSO IS SERVED">
<path fill="none" stroke="black" d="M211.951,-176.832C253.543,-180.282 330.33,-189.344 347,-210 369.94,-238.425 310.47,-247.169 268.454,-249.843"/>
<polygon fill="black" stroke="black" points="268.004,-246.362 258.208,-250.4 268.384,-253.351 268.004,-246.362"/>
</a>
</g>
<g id="a_edge34&#45;label"><a xlink:href="t43" xlink:title="PRESS_BUTTON_B / EXPRESSO IS SERVED">
<text text-anchor="middle" x="401" y="-212" font-family="Times,serif" font-size="5.00">PRESS_BUTTON_B / EXPRESSO IS SERVED</text>
</a>
</g>
</g>
<!-- 8&#45;&gt;8 -->
<g id="edge32" class="edge"><title>8&#45;&gt;8</title>
<g id="a_edge32"><a xlink:href="t41" xlink:title="REFILL_COFFEE / ERROR">
<path fill="none" stroke="black" d="M209.989,-181.04C220.77,-181.616 230,-179.27 230,-174 230,-170.542 226.025,-168.343 220.245,-167.402"/>
<polygon fill="black" stroke="black" points="220.13,-163.894 209.989,-166.96 219.829,-170.887 220.13,-163.894"/>
</a>
</g>
<g id="a_edge32&#45;label"><a xlink:href="t41" xlink:title="REFILL_COFFEE / ERROR">
<text text-anchor="middle" x="259" y="-173" font-family="Times,serif" font-size="5.00">REFILL_COFFEE / ERROR</text>
</a>
</g>
</g>
<!-- 8&#45;&gt;2 -->
<g id="edge35" class="edge"><title>8&#45;&gt;2</title>
<g id="a_edge35"><a xlink:href="t44" xlink:title="PRESS_BUTTON_C / COFFEE MACHINE IS OFF">
<path fill="none" stroke="black" d="M184.546,-155.754C184.303,-146.523 183.998,-134.935 183.724,-124.495"/>
<polygon fill="black" stroke="black" points="187.214,-124.082 183.452,-114.177 180.216,-124.266 187.214,-124.082"/>
</a>
</g>
<g id="a_edge35&#45;label"><a xlink:href="t44" xlink:title="PRESS_BUTTON_C / COFFEE MACHINE IS OFF">
<text text-anchor="middle" x="239.5" y="-134" font-family="Times,serif" font-size="5.00">PRESS_BUTTON_C / COFFEE MACHINE IS OFF</text>
</a>
</g>
</g>
<!-- 7&#45;&gt;10 -->
<g id="edge37" class="edge"><title>7&#45;&gt;10</title>
<g id="a_edge37"><a xlink:href="t36" xlink:title="REFILL_COFFEE / DONE">
<path fill="none" stroke="black" d="M651.467,-180.392C670.422,-185.449 696.018,-194.599 714,-210 854.18,-330.062 771.365,-281.354 760,-294 740.916,-315.235 552.03,-324.654 470.333,-327.757"/>
<polygon fill="black" stroke="black" points="469.867,-324.272 460.003,-328.138 470.125,-331.267 469.867,-324.272"/>
</a>
</g>
<g id="a_edge37&#45;label"><a xlink:href="t36" xlink:title="REFILL_COFFEE / DONE">
<text text-anchor="middle" x="808.5" y="-251" font-family="Times,serif" font-size="5.00">REFILL_COFFEE / DONE</text>
</a>
</g>
</g>
<!-- 7&#45;&gt;5 -->
<g id="edge38" class="edge"><title>7&#45;&gt;5</title>
<g id="a_edge38"><a xlink:href="t37" xlink:title="PRESS_BUTTON_A / NORMAL COFFEE IS SERVED">
<path fill="none" stroke="black" d="M604.179,-185.045C598.066,-187.583 591.354,-190.119 585,-192 472.097,-225.422 332.975,-241.651 267.87,-247.858"/>
<polygon fill="black" stroke="black" points="267.335,-244.393 257.702,-248.803 267.983,-251.363 267.335,-244.393"/>
</a>
</g>
<g id="a_edge38&#45;label"><a xlink:href="t37" xlink:title="PRESS_BUTTON_A / NORMAL COFFEE IS SERVED">
<text text-anchor="middle" x="568" y="-212" font-family="Times,serif" font-size="5.00">PRESS_BUTTON_A / NORMAL COFFEE IS SERVED</text>
</a>
</g>
</g>
<!-- 7&#45;&gt;7 -->
<g id="edge36" class="edge"><title>7&#45;&gt;7</title>
<g id="a_edge36"><a xlink:href="t35" xlink:title="REFILL_WATER / ERROR">
<path fill="none" stroke="black" d="M652.795,-177.555C662.78,-177.671 671,-176.486 671,-174 671,-172.446 667.789,-171.4 662.943,-170.863"/>
<polygon fill="black" stroke="black" points="662.93,-167.36 652.795,-170.445 662.642,-174.354 662.93,-167.36"/>
</a>
</g>
<g id="a_edge36&#45;label"><a xlink:href="t35" xlink:title="REFILL_WATER / ERROR">
<text text-anchor="middle" x="699.5" y="-173" font-family="Times,serif" font-size="5.00">REFILL_WATER / ERROR</text>
</a>
</g>
</g>
<!-- 7&#45;&gt;7 -->
<g id="edge39" class="edge"><title>7&#45;&gt;7</title>
<g id="a_edge39"><a xlink:href="t38" xlink:title="PRESS_BUTTON_B / ERROR">
<path fill="none" stroke="black" d="M651.79,-179.453C683.382,-182.869 728,-181.051 728,-174 728,-167.665 691.985,-165.555 661.758,-167.668"/>
<polygon fill="black" stroke="black" points="661.444,-164.182 651.79,-168.547 662.059,-171.155 661.444,-164.182"/>
</a>
</g>
<g id="a_edge39&#45;label"><a xlink:href="t38" xlink:title="PRESS_BUTTON_B / ERROR">
<text text-anchor="middle" x="760" y="-173" font-family="Times,serif" font-size="5.00">PRESS_BUTTON_B / ERROR</text>
</a>
</g>
</g>
<!-- 7&#45;&gt;6 -->
<g id="edge40" class="edge"><title>7&#45;&gt;6</title>
<g id="a_edge40"><a xlink:href="t39" xlink:title="PRESS_BUTTON_C / COFFEE MACHINE IS OFF">
<path fill="none" stroke="black" d="M651.459,-167.534C713.713,-154.169 873.734,-119.814 944.934,-104.528"/>
<polygon fill="black" stroke="black" points="945.729,-107.937 954.772,-102.416 944.26,-101.093 945.729,-107.937"/>
</a>
</g>
<g id="a_edge40&#45;label"><a xlink:href="t39" xlink:title="PRESS_BUTTON_C / COFFEE MACHINE IS OFF">
<text text-anchor="middle" x="868.5" y="-134" font-family="Times,serif" font-size="5.00">PRESS_BUTTON_C / COFFEE MACHINE IS OFF</text>
</a>
</g>
</g>
<!-- 3&#45;&gt;10 -->
<g id="edge42" class="edge"><title>3&#45;&gt;10</title>
<g id="a_edge42"><a xlink:href="t16" xlink:title="REFILL_COFFEE / DONE">
<path fill="none" stroke="black" d="M843.972,-402.473C769.36,-389.497 554.597,-352.147 468.919,-337.247"/>
<polygon fill="black" stroke="black" points="469.343,-333.768 458.891,-335.503 468.144,-340.665 469.343,-333.768"/>
</a>
</g>
<g id="a_edge42&#45;label"><a xlink:href="t16" xlink:title="REFILL_COFFEE / DONE">
<text text-anchor="middle" x="693.5" y="-368" font-family="Times,serif" font-size="5.00">REFILL_COFFEE / DONE</text>
</a>
</g>
</g>
<!-- 3&#45;&gt;3 -->
<g id="edge41" class="edge"><title>3&#45;&gt;3</title>
<g id="a_edge41"><a xlink:href="t15" xlink:title="REFILL_WATER / ERROR">
<path fill="none" stroke="black" d="M896.795,-410.37C906.78,-410.447 915,-409.658 915,-408 915,-406.964 911.789,-406.267 906.943,-405.909"/>
<polygon fill="black" stroke="black" points="906.887,-402.406 896.795,-405.63 906.695,-409.403 906.887,-402.406"/>
</a>
</g>
<g id="a_edge41&#45;label"><a xlink:href="t15" xlink:title="REFILL_WATER / ERROR">
<text text-anchor="middle" x="943.5" y="-407" font-family="Times,serif" font-size="5.00">REFILL_WATER / ERROR</text>
</a>
</g>
</g>
<!-- 3&#45;&gt;3 -->
<g id="edge43" class="edge"><title>3&#45;&gt;3</title>
<g id="a_edge43"><a xlink:href="t17" xlink:title="PRESS_BUTTON_A / ERROR">
<path fill="none" stroke="black" d="M896.792,-411.706C928.316,-413.886 972,-412.651 972,-408 972,-403.839 937.045,-402.412 907.107,-403.718"/>
<polygon fill="black" stroke="black" points="906.581,-400.242 896.792,-404.294 906.972,-407.231 906.581,-400.242"/>
</a>
</g>
<g id="a_edge43&#45;label"><a xlink:href="t17" xlink:title="PRESS_BUTTON_A / ERROR">
<text text-anchor="middle" x="1004" y="-407" font-family="Times,serif" font-size="5.00">PRESS_BUTTON_A / ERROR</text>
</a>
</g>
</g>
<!-- 3&#45;&gt;3 -->
<g id="edge44" class="edge"><title>3&#45;&gt;3</title>
<g id="a_edge44"><a xlink:href="t18" xlink:title="PRESS_BUTTON_B / ERROR">
<path fill="none" stroke="black" d="M896.41,-412.445C945.557,-417.145 1036,-415.663 1036,-408 1036,-400.831 956.84,-399.072 906.392,-402.723"/>
<polygon fill="black" stroke="black" points="906.085,-399.237 896.41,-403.555 906.666,-406.212 906.085,-399.237"/>
</a>
</g>
<g id="a_edge44&#45;label"><a xlink:href="t18" xlink:title="PRESS_BUTTON_B / ERROR">
<text text-anchor="middle" x="1068" y="-407" font-family="Times,serif" font-size="5.00">PRESS_BUTTON_B / ERROR</text>
</a>
</g>
</g>
<!-- 3&#45;&gt;6 -->
<g id="edge45" class="edge"><title>3&#45;&gt;6</title>
<g id="a_edge45"><a xlink:href="t19" xlink:title="PRESS_BUTTON_C / COFFEE MACHINE IS OFF">
<path fill="none" stroke="black" d="M868.814,-389.824C867.374,-356.977 868.232,-284.079 899,-234 915.473,-207.188 938.45,-218.12 956,-192 969.591,-171.772 975.486,-144.435 978.043,-124.279"/>
<polygon fill="black" stroke="black" points="981.539,-124.506 979.124,-114.19 974.579,-123.761 981.539,-124.506"/>
</a>
</g>
<g id="a_edge45&#45;label"><a xlink:href="t19" xlink:title="PRESS_BUTTON_C / COFFEE MACHINE IS OFF">
<text text-anchor="middle" x="953.5" y="-251" font-family="Times,serif" font-size="5.00">PRESS_BUTTON_C / COFFEE MACHINE IS OFF</text>
</a>
</g>
</g>
<!-- 2&#45;&gt;4 -->
<g id="edge50" class="edge"><title>2&#45;&gt;4</title>
<g id="a_edge50"><a xlink:href="t14" xlink:title="PRESS_BUTTON_C / COFFEE MACHINE IS ON">
<path fill="none" stroke="black" d="M158.655,-87.6571C144.175,-82.1565 126.454,-73.2656 115,-60 111.465,-55.9064 108.812,-50.8777 106.823,-45.7622"/>
<polygon fill="black" stroke="black" points="110.104,-44.528 103.762,-36.0411 103.427,-46.6307 110.104,-44.528"/>
</a>
</g>
<g id="a_edge50&#45;label"><a xlink:href="t14" xlink:title="PRESS_BUTTON_C / COFFEE MACHINE IS ON">
<text text-anchor="middle" x="168" y="-56" font-family="Times,serif" font-size="5.00">PRESS_BUTTON_C / COFFEE MACHINE IS ON</text>
</a>
</g>
</g>
<!-- 2&#45;&gt;1 -->
<g id="edge46" class="edge"><title>2&#45;&gt;1</title>
<g id="a_edge46"><a xlink:href="t10" xlink:title="REFILL_WATER / DONE">
<path fill="none" stroke="black" d="M208.699,-89.9746C250.568,-81.8689 336.153,-65.6414 409,-54 485.895,-41.7117 576.35,-29.8123 625.574,-23.5509"/>
<polygon fill="black" stroke="black" points="626.241,-26.9944 635.722,-22.2657 625.362,-20.0499 626.241,-26.9944"/>
</a>
</g>
<g id="a_edge46&#45;label"><a xlink:href="t10" xlink:title="REFILL_WATER / DONE">
<text text-anchor="middle" x="436.5" y="-56" font-family="Times,serif" font-size="5.00">REFILL_WATER / DONE</text>
</a>
</g>
</g>
<!-- 2&#45;&gt;2 -->
<g id="edge47" class="edge"><title>2&#45;&gt;2</title>
<g id="a_edge47"><a xlink:href="t11" xlink:title="REFILL_COFFEE / ERROR">
<path fill="none" stroke="black" d="M209.795,-98.3698C219.78,-98.4475 228,-97.6576 228,-96 228,-94.964 224.789,-94.267 219.943,-93.9088"/>
<polygon fill="black" stroke="black" points="219.887,-90.4061 209.795,-93.6302 219.695,-97.4034 219.887,-90.4061"/>
</a>
</g>
<g id="a_edge47&#45;label"><a xlink:href="t11" xlink:title="REFILL_COFFEE / ERROR">
<text text-anchor="middle" x="257" y="-95" font-family="Times,serif" font-size="5.00">REFILL_COFFEE / ERROR</text>
</a>
</g>
</g>
<!-- 2&#45;&gt;2 -->
<g id="edge48" class="edge"><title>2&#45;&gt;2</title>
<g id="a_edge48"><a xlink:href="t12" xlink:title="PRESS_BUTTON_A / ERROR">
<path fill="none" stroke="black" d="M209.46,-99.6712C241.305,-101.9 286,-100.676 286,-96 286,-91.7991 249.923,-90.3847 219.5,-91.7567"/>
<polygon fill="black" stroke="black" points="219.244,-88.2655 209.46,-92.3288 219.643,-95.2541 219.244,-88.2655"/>
</a>
</g>
<g id="a_edge48&#45;label"><a xlink:href="t12" xlink:title="PRESS_BUTTON_A / ERROR">
<text text-anchor="middle" x="318" y="-95" font-family="Times,serif" font-size="5.00">PRESS_BUTTON_A / ERROR</text>
</a>
</g>
</g>
<!-- 2&#45;&gt;2 -->
<g id="edge49" class="edge"><title>2&#45;&gt;2</title>
<g id="a_edge49"><a xlink:href="t13" xlink:title="PRESS_BUTTON_B / ERROR">
<path fill="none" stroke="black" d="M209.508,-100.445C258.906,-105.145 350,-103.663 350,-96 350,-88.8308 270.27,-87.0719 219.543,-90.7231"/>
<polygon fill="black" stroke="black" points="219.184,-87.2408 209.508,-91.5548 219.763,-94.2169 219.184,-87.2408"/>
</a>
</g>
<g id="a_edge49&#45;label"><a xlink:href="t13" xlink:title="PRESS_BUTTON_B / ERROR">
<text text-anchor="middle" x="382" y="-95" font-family="Times,serif" font-size="5.00">PRESS_BUTTON_B / ERROR</text>
</a>
</g>
</g>
<!-- 6&#45;&gt;1 -->
<g id="edge52" class="edge"><title>6&#45;&gt;1</title>
<g id="a_edge52"><a xlink:href="t31" xlink:title="REFILL_COFFEE / DONE">
<path fill="none" stroke="black" d="M957.314,-86.0742C933.418,-76.9517 894.538,-62.8962 860,-54 804.298,-39.6526 738.272,-29.2746 698.289,-23.7001"/>
<polygon fill="black" stroke="black" points="698.603,-20.2104 688.22,-22.3213 697.653,-27.1457 698.603,-20.2104"/>
</a>
</g>
<g id="a_edge52&#45;label"><a xlink:href="t31" xlink:title="REFILL_COFFEE / DONE">
<text text-anchor="middle" x="907.5" y="-56" font-family="Times,serif" font-size="5.00">REFILL_COFFEE / DONE</text>
</a>
</g>
</g>
<!-- 6&#45;&gt;3 -->
<g id="edge55" class="edge"><title>6&#45;&gt;3</title>
<g id="a_edge55"><a xlink:href="t34" xlink:title="PRESS_BUTTON_C / COFFEE MACHINE IS ON">
<path fill="none" stroke="black" d="M996.096,-110.649C1010.71,-124.652 1030,-147.888 1030,-173 1030,-331 1030,-331 1030,-331 1030,-385.035 954.623,-400.698 907.342,-405.207"/>
<polygon fill="black" stroke="black" points="906.819,-401.739 897.142,-406.051 907.396,-408.715 906.819,-401.739"/>
</a>
</g>
<g id="a_edge55&#45;label"><a xlink:href="t34" xlink:title="PRESS_BUTTON_C / COFFEE MACHINE IS ON">
<text text-anchor="middle" x="1083" y="-251" font-family="Times,serif" font-size="5.00">PRESS_BUTTON_C / COFFEE MACHINE IS ON</text>
</a>
</g>
</g>
<!-- 6&#45;&gt;6 -->
<g id="edge51" class="edge"><title>6&#45;&gt;6</title>
<g id="a_edge51"><a xlink:href="t30" xlink:title="REFILL_WATER / ERROR">
<path fill="none" stroke="black" d="M1006.79,-98.3698C1016.78,-98.4475 1025,-97.6576 1025,-96 1025,-94.964 1021.79,-94.267 1016.94,-93.9088"/>
<polygon fill="black" stroke="black" points="1016.89,-90.4061 1006.79,-93.6302 1016.7,-97.4034 1016.89,-90.4061"/>
</a>
</g>
<g id="a_edge51&#45;label"><a xlink:href="t30" xlink:title="REFILL_WATER / ERROR">
<text text-anchor="middle" x="1053.5" y="-95" font-family="Times,serif" font-size="5.00">REFILL_WATER / ERROR</text>
</a>
</g>
</g>
<!-- 6&#45;&gt;6 -->
<g id="edge53" class="edge"><title>6&#45;&gt;6</title>
<g id="a_edge53"><a xlink:href="t32" xlink:title="PRESS_BUTTON_A / ERROR">
<path fill="none" stroke="black" d="M1006.79,-99.7063C1038.32,-101.886 1082,-100.651 1082,-96 1082,-91.8395 1047.04,-90.4121 1017.11,-91.7179"/>
<polygon fill="black" stroke="black" points="1016.58,-88.2416 1006.79,-92.2937 1016.97,-95.2308 1016.58,-88.2416"/>
</a>
</g>
<g id="a_edge53&#45;label"><a xlink:href="t32" xlink:title="PRESS_BUTTON_A / ERROR">
<text text-anchor="middle" x="1114" y="-95" font-family="Times,serif" font-size="5.00">PRESS_BUTTON_A / ERROR</text>
</a>
</g>
</g>
<!-- 6&#45;&gt;6 -->
<g id="edge54" class="edge"><title>6&#45;&gt;6</title>
<g id="a_edge54"><a xlink:href="t33" xlink:title="PRESS_BUTTON_B / ERROR">
<path fill="none" stroke="black" d="M1006.41,-100.445C1055.56,-105.145 1146,-103.663 1146,-96 1146,-88.8308 1066.84,-87.0719 1016.39,-90.7231"/>
<polygon fill="black" stroke="black" points="1016.08,-87.2365 1006.41,-91.5548 1016.67,-94.2124 1016.08,-87.2365"/>
</a>
</g>
<g id="a_edge54&#45;label"><a xlink:href="t33" xlink:title="PRESS_BUTTON_B / ERROR">
<text text-anchor="middle" x="1178" y="-95" font-family="Times,serif" font-size="5.00">PRESS_BUTTON_B / ERROR</text>
</a>
</g>
</g>
</g>
</svg>
